<svg height="1000" width="857.143" xmlns="http://www.w3.org/2000/svg"><path d="M704.196 727.138q-30.132 5.022 -61.38 5.022 -101.556 0 -188.046 -50.22t-136.71 -136.71 -50.22 -188.046q0 -107.136 58.032 -199.206 -112.158 33.48 -183.303 127.782t-71.145 214.272q0 72.54 28.458 138.663t76.167 113.832 113.832 76.167 138.663 28.458q80.352 0 152.613 -34.317t123.039 -95.697zm113.274 -47.43q-52.452 113.274 -158.193 181.071t-230.733 67.797q-87.048 0 -166.284 -34.038t-136.71 -91.512 -91.512 -136.71 -34.038 -166.284q0 -85.374 32.085 -163.215t87.048 -134.757 131.409 -91.791 161.82 -38.223q24.552 -1.116 34.038 21.762 10.044 22.878 -8.37 40.176 -47.988 43.524 -73.377 101.277t-25.389 121.923q0 82.584 40.734 152.334t110.484 110.484 152.334 40.734q65.844 0 127.224 -28.458 22.878 -10.044 40.176 7.254 7.812 7.812 9.765 18.972t-2.511 21.204z"/></svg>